<svg width="208" height="56" viewBox="0 0 208 56" fill="none" xmlns="http://www.w3.org/2000/svg">
<path d="M25.2267 28.8568C22.8425 41.7856 20.6775 53.091 20.4158 53.98C20.0186 55.3287 18.3543 55.6466 10.3632 55.899C5.09605 56.0654 0.609595 56.0215 0.393338 55.8018C0.176964 55.5819 0 42.953 0 27.7374V0.0728655H30.6714L30.1164 2.71142C29.8112 4.16259 27.6108 15.928 25.2267 28.8568Z" fill="white"/>
<path d="M57.727 24.7791C55.7775 30.4519 52.6137 39.7341 50.6964 45.4062L47.2103 55.7189L36.4807 55.7203C27.6313 55.7215 25.7511 55.4723 25.7511 54.2983C25.7511 51.1145 35.4316 1.46401 36.2038 0.6872C37.53 -0.646967 87.5656 0.590282 91.8602 2.06341C96.1849 3.54691 97.6726 5.91418 96.9797 10.2099C96.6995 11.9466 91.4097 22.8972 85.2245 34.5446L73.9788 55.7217H63.1531C52.432 55.7217 52.3338 55.7013 52.9936 53.61C53.36 52.4486 56.5598 43.7055 60.1042 34.1809C66.2992 17.5333 66.6725 16.8191 69.755 15.7182C72.8862 14.5998 72.8243 14.5718 67.1165 14.5189L61.2715 14.4649L57.727 24.7791Z" fill="white"/>
<path d="M122.996 32.8336C118.722 45.6552 114.164 51.3371 105.761 54.3198C101.524 55.8238 91.3701 56.1061 88.1882 54.8087C82.626 52.5405 82.3976 47.7705 87.4047 38.4446L91.0071 31.735H105.898L103.497 36.5004C100.689 42.0748 100.653 42.2891 102.508 42.2891C103.856 42.2891 106.803 37.4534 108.173 32.9932C108.72 31.2147 108.008 30.3722 103.527 27.4882C99.3427 24.7955 98.2357 23.5636 98.2357 21.6001C98.2357 18.2955 105.202 6.42469 108.496 4.11753C116.342 -1.37927 131.381 -1.37058 133.117 4.13205C133.438 5.14899 132.75 8.53757 131.589 11.6622L129.477 17.3433H122.917C119.309 17.3433 116.357 17.106 116.357 16.8159C116.357 15.7088 119.533 10.1149 120.543 9.44234C121.158 9.0332 120.71 8.73003 119.476 8.72277C117.952 8.7122 116.804 9.78425 115.422 12.5077C114.363 14.5975 113.496 16.7361 113.496 17.2601C113.496 17.7842 115.391 19.0563 117.707 20.087C120.023 21.1177 122.618 23.0354 123.473 24.3485C124.928 26.5824 124.898 27.1284 122.996 32.8336Z" fill="white"/>
<path d="M151.634 1.27222C151.627 1.93189 147.816 14.3449 143.163 28.8568L134.704 55.2423L126.484 55.5193C121.963 55.6718 118.264 55.4372 118.264 54.998C118.264 54.5587 120.136 49.4687 122.424 43.6869C124.713 37.905 129.469 25.7266 132.994 16.6237L139.403 0.0728655H145.524C149.791 0.0728655 151.641 0.436149 151.634 1.27222Z" fill="white"/>
<path fill-rule="evenodd" clip-rule="evenodd" d="M180.727 27.5655C178.129 46.0593 176.233 51.7007 171.898 53.8296C170.208 54.6595 164.166 55.2545 154.745 55.5188C141.045 55.9031 140.205 55.8234 140.271 54.1453C140.309 53.1654 143.858 40.7062 148.156 26.4582L155.97 0.552656H168.193C175.46 0.552656 179.528 0.338733 181.498 2.28003C184.146 4.89059 182.998 11.3986 180.727 27.5655ZM165.034 18.0628C163.876 23.208 162.177 30.5479 161.259 34.3737C159.648 41.0912 159.651 41.3298 161.34 41.3298C162.303 41.3298 163.09 40.9941 163.09 40.5838C163.09 40.1734 164.534 32.8335 166.298 24.2729C168.625 12.9827 169.181 8.7081 168.323 8.7081C167.607 8.7081 166.31 12.3977 165.034 18.0628Z" fill="white"/>
<path d="M207.439 41.8096L208 55.7217H181.024L181.662 49.7251C182.971 37.4286 187.014 4.31327 187.461 2.2316C187.905 0.159829 188.327 0.0728069 197.92 0.0728069H207.916V8.70798H200.471L199.809 18.3038L207.916 18.3026V28.8568H199.562L199.104 34.8534C198.851 38.1515 198.73 40.9592 198.833 41.0927C198.936 41.2261 200.915 41.4419 203.23 41.5724L207.439 41.8096Z" fill="white"/>
</svg>
