<svg width="632" height="306" viewBox="0 0 632 306" fill="none" xmlns="http://www.w3.org/2000/svg">
<path fill-rule="evenodd" clip-rule="evenodd" d="M36.7564 293.406C35.6864 293.406 35.8383 297.263 37.0852 301.754C37.874 304.594 38.5924 305.489 39.8299 305.173C40.7518 304.938 54.1947 302.081 69.7031 298.826C92.6536 294.008 97.9856 292.581 98.3594 291.156C98.8981 289.104 100.849 288.834 101.57 290.712C101.965 291.741 105.037 291.381 116.034 289.018C123.797 287.351 129.457 285.685 128.781 285.267C128.112 284.853 127.896 284.183 128.302 283.777C128.707 283.372 129.572 283.572 130.223 284.223C131.973 285.973 135.07 285.736 134.368 283.906C134.011 282.977 134.372 282.406 135.316 282.406C136.154 282.406 136.989 282.854 137.173 283.402C137.374 284.002 143.377 283.135 152.276 281.22C166.081 278.25 166.864 277.959 164.276 276.776C160.515 275.057 157.515 272.564 158.282 271.796C159.441 270.638 164.149 272.459 166.771 275.08L169.363 277.673L191.935 272.91C211.875 268.702 226.832 265.475 233.721 263.894C235.176 263.56 235.739 262.875 235.364 261.896C235.049 261.077 235.29 260.406 235.899 260.406C236.508 260.406 237.006 260.916 237.006 261.538C237.006 263.187 244.753 261.946 246.966 259.943C248.2 258.826 249.618 258.522 251.449 258.981C255.396 259.972 265.777 257.559 265.627 255.685C265.488 253.964 268.563 251.63 269.601 252.667C269.98 253.047 269.722 254.044 269.026 254.882C268.33 255.72 268.178 256.406 268.689 256.406C271.259 256.406 297.547 250.202 298.568 249.354C299.22 248.814 300.381 248.613 301.149 248.908C301.918 249.203 309.722 247.86 318.492 245.925C327.262 243.99 334.656 242.406 334.924 242.406C335.192 242.406 333.694 240.648 331.595 238.498C325.671 232.431 324.163 232.525 282.006 241.603C261.931 245.926 244.427 249.643 243.109 249.863C241.791 250.082 240.441 250.684 240.109 251.2C239.211 252.595 234.585 253.897 235.44 252.513C235.816 251.904 235.785 251.406 235.371 251.406C234.957 251.406 220.868 254.368 204.062 257.988C187.256 261.608 166.306 266.08 157.506 267.925C137.081 272.209 75.4918 285.268 54.0064 289.871C44.9318 291.816 37.1693 293.406 36.7564 293.406ZM103.006 283.906C103.556 284.246 104.006 284.723 104.006 284.965C104.006 285.208 103.556 285.406 103.006 285.406C102.456 285.406 102.006 284.93 102.006 284.347C102.006 283.765 102.456 283.566 103.006 283.906ZM117.815 278.406C118.26 278.406 119.453 279.013 120.466 279.754C122.672 281.366 121.203 282.656 118.734 281.274C116.964 280.284 116.362 278.406 117.815 278.406ZM190.838 264.438C192.277 264.466 192.239 264.672 190.565 265.938C188.398 267.577 186.006 267.879 186.006 266.513C186.006 265.458 188.485 264.393 190.838 264.438ZM237.339 254.74C238.055 254.023 240.006 255.285 240.006 256.465C240.006 256.983 239.582 257.406 239.065 257.406C237.885 257.406 236.623 255.456 237.339 254.74ZM231.899 253.406C232.39 253.406 233.051 254.081 233.367 254.906C233.718 255.82 233.369 256.406 232.474 256.406C231.667 256.406 231.006 255.731 231.006 254.906C231.006 254.081 231.408 253.406 231.899 253.406ZM244.006 252.406C244.556 252.406 245.006 253.081 245.006 253.906C245.006 254.731 244.556 255.406 244.006 255.406C243.456 255.406 243.006 254.731 243.006 253.906C243.006 253.081 243.456 252.406 244.006 252.406ZM274.454 251.561C275.594 251.34 276.075 251.7 275.788 252.561C275.542 253.301 274.538 254.062 273.558 254.252C272.418 254.473 271.937 254.112 272.223 253.252C272.47 252.512 273.474 251.751 274.454 251.561ZM279.006 248.09C279.006 245.983 283.47 246.319 284.852 248.531C285.846 250.124 285.729 250.406 284.073 250.406C283.001 250.406 281.841 249.949 281.496 249.39C281.15 248.831 280.449 248.633 279.937 248.949C279.425 249.265 279.006 248.879 279.006 248.09ZM286.947 244.406C287.529 244.406 288.006 244.856 288.006 245.406C288.006 245.956 287.807 246.406 287.565 246.406C287.322 246.406 286.846 245.956 286.506 245.406C286.166 244.856 286.364 244.406 286.947 244.406ZM325.438 238.656C325.052 239.894 324.234 241.237 323.621 241.641C322.23 242.557 319.552 242.62 318.689 241.756C317.798 240.865 322.746 236.406 324.625 236.406C325.738 236.406 325.954 237.004 325.438 238.656ZM37.5607 258.5C40.0455 263.419 42.7347 265.664 48.1254 267.32C55.6632 269.635 74.4715 266.752 84.5057 261.744C91.0211 258.492 92.9002 256.751 95.125 251.906C99.0685 243.318 95.9534 218.818 89.5229 207.845C86.46 202.619 85.383 201.848 83.4195 203.478C82.2545 204.445 81.654 204.455 80.7217 203.522C79.7894 202.59 79.8139 202.143 80.8317 201.514C82.7689 200.317 78.2873 198.813 66.0058 196.54C47.3064 193.079 44.0058 190.592 44.0058 179.964C44.0058 175.985 44.3512 175.279 46.9561 173.932C48.5788 173.093 51.4934 172.406 53.4331 172.406C57.2041 172.406 59.2013 174.453 60.3712 179.518C60.8812 181.726 61.6709 182.226 65.4728 182.747C70.332 183.413 76.0058 182.657 76.0058 181.343C76.0058 180.896 77.18 180.614 78.6151 180.718C83.0954 181.041 83.6337 178.633 81.2441 168.953C78.6509 158.449 76.0247 153.967 70.9449 151.375C66.2139 148.962 56.2371 148.749 46.3212 150.851C21.8568 156.036 16.0631 163.933 20.6016 185.906C23.9282 202.012 27.785 209.689 34.2216 213.018C35.8593 213.865 42.8885 215.67 49.8422 217.03C56.7959 218.39 63.8399 220.283 65.4955 221.238C69.3427 223.457 72.0023 228.736 72.0043 234.156C72.0053 237.099 72.4296 238.406 73.3833 238.406C74.141 238.406 75.3369 239.1 76.041 239.949C77.9241 242.218 75.692 244.316 73.1103 242.704C71.6888 241.816 70.3065 241.881 67.095 242.987C61.1497 245.036 58.1694 243.978 55.918 239.02C54.8905 236.757 54.0391 233.894 54.0278 232.656C54.0132 231.164 53.3993 230.406 52.2051 230.406C49.7549 230.406 32.9701 234.109 32.2766 234.802C31.9709 235.108 32.2161 235.955 32.8214 236.684C33.4268 237.413 33.6748 238.955 33.3728 240.111C32.5798 243.143 34.8595 253.154 37.5607 258.5ZM82.9433 246.594C83.6932 246.344 84.0681 246.719 83.8183 247.469C83.5777 248.191 82.7902 248.978 82.0683 249.219C81.3184 249.469 80.9435 249.094 81.1933 248.344C81.4339 247.622 82.2214 246.834 82.9433 246.594ZM92.0058 247.906C92.5558 248.246 93.0058 248.723 93.0058 248.965C93.0058 249.208 92.5558 249.406 92.0058 249.406C91.4558 249.406 91.0058 248.93 91.0058 248.347C91.0058 247.765 91.4558 247.566 92.0058 247.906ZM86.0648 246.406C86.6471 246.406 86.8456 246.856 86.5058 247.406C86.1659 247.956 85.6894 248.406 85.4468 248.406C85.2042 248.406 85.0058 247.956 85.0058 247.406C85.0058 246.856 85.4824 246.406 86.0648 246.406ZM70.7278 204.954C70.3953 205.499 69.0984 205.456 66.2558 205.38C63.6433 205.311 60.3534 205.549 58.945 205.91C57.2006 206.358 55.9672 206.065 55.0761 204.991C53.941 203.623 54.3457 203.153 58.1369 201.432C64.4003 198.59 68.394 198.768 69.8453 201.953C70.5974 203.604 71.0102 204.491 70.7278 204.954ZM49.5058 196.406C50.484 194.823 52.5407 195.235 54.5058 197.406C56.2787 199.365 56.2524 199.406 53.2198 199.406C50.0084 199.406 48.4364 198.136 49.5058 196.406ZM38.5058 178.406C39.3958 178.406 39.8456 178.856 39.5058 179.406C39.1659 179.956 38.7159 180.406 38.5058 180.406C38.2957 180.406 37.8456 179.956 37.5058 179.406C37.1659 178.856 37.6159 178.406 38.5058 178.406ZM110.47 218.942C115.584 239.301 120.019 246.867 128.643 249.941C134.084 251.882 142.006 251.86 142.006 249.906C142.006 249.081 141.373 248.406 140.6 248.406C138.61 248.406 139.773 244.601 142.151 243.328C144.599 242.018 146.311 243.038 145.149 245.115C144.664 245.981 144.489 247.536 144.759 248.57C145.169 250.139 145.852 250.343 148.878 249.797C153.414 248.98 154.006 248.639 154.006 246.847C154.006 245.243 159.607 244.767 160.173 246.323C160.625 247.567 167.224 245.189 171.897 242.097C182.429 235.127 182.459 220.602 172.039 174.906C166.787 151.873 161.735 138.219 159.074 139.864C158.709 140.089 157.757 139.854 156.958 139.34C155.79 138.589 155.76 138.242 156.803 137.568C158.45 136.504 156.907 135.099 151.711 132.928C147.397 131.125 141.991 131.002 133.338 132.509C126.658 133.672 125.37 134.779 129.491 135.813C132.447 136.555 134.077 141.106 131.891 142.512C129.831 143.838 127.486 143.068 127.645 141.118C127.742 139.925 127.032 139.406 125.301 139.406C123.66 139.406 122.641 138.729 122.296 137.406C121.69 135.089 121.076 135.005 115.957 136.539C112.197 137.666 112.186 137.683 114.091 139.728C115.144 140.858 116.006 142.181 116.006 142.668C116.006 144.373 112.545 142.866 111.459 140.688L110.362 138.488L106.803 141.422C104.845 143.036 102.486 146.247 101.562 148.558C99.4427 153.854 99.2637 165.411 101.283 166.542C102.055 166.973 103.77 168.266 105.096 169.414L107.506 171.502L104.256 170.875C101.282 170.301 101.006 170.462 101.006 172.77C101.006 176.291 106.545 203.313 110.47 218.942ZM162.682 241.063C163.343 240.402 167.006 242.592 167.006 243.647C167.006 244.064 166.154 244.406 165.113 244.406C163.263 244.406 161.611 242.134 162.682 241.063ZM147.224 239.252C147.743 237.695 149.98 237.422 150.059 238.906C150.088 239.456 149.361 240.061 148.443 240.252C147.401 240.468 146.944 240.093 147.224 239.252ZM140.968 235.406C141.695 236.496 141.511 237.248 140.296 238.156C137 240.619 135.909 239.226 138.487 235.847C139.768 234.167 140.102 234.108 140.968 235.406ZM150.232 197.363C154.575 218.732 154.699 220.469 152.046 222.869C149.754 224.944 141.586 226.155 140.604 224.565C140.24 223.976 139.327 223.73 138.575 224.018C137.823 224.306 136.864 223.985 136.443 223.304C135.899 222.425 136.192 222.264 137.453 222.748C138.868 223.29 139.076 223.071 138.478 221.668C138.065 220.699 136.993 217.341 136.096 214.205C134.781 209.609 134.178 208.686 132.985 209.44C130.425 211.059 128.006 210.557 128.006 208.406C128.006 206.841 128.672 206.406 131.073 206.406C133.52 206.406 134.039 206.052 133.637 204.656C133.36 203.694 132.351 199.032 131.394 194.297C130.142 188.104 129.246 185.718 128.201 185.797C127.403 185.857 126.577 184.844 126.367 183.545C126.072 181.728 126.347 181.323 127.56 181.789C128.712 182.231 128.999 181.924 128.627 180.65C127.467 176.68 126.006 166.757 126.006 162.845C126.006 157.679 127.562 156.251 133.852 155.647C138.082 155.241 138.818 155.47 140.238 157.637C141.12 158.985 142.329 161.959 142.924 164.247C143.519 166.534 144.477 170.22 145.052 172.436C145.628 174.653 146.428 176.263 146.83 176.015C147.233 175.766 148.674 176.458 150.034 177.553L152.506 179.543L149.484 179.181L146.463 178.82L150.232 197.363ZM128.565 222.406C128.807 222.406 129.006 222.856 129.006 223.406C129.006 223.956 128.529 224.406 127.947 224.406C127.364 224.406 127.166 223.956 127.506 223.406C127.846 222.856 128.322 222.406 128.565 222.406ZM133.447 221.406C134.304 221.406 135.006 221.856 135.006 222.406C135.006 222.956 134.582 223.406 134.065 223.406C133.547 223.406 132.846 222.956 132.506 222.406C132.166 221.856 132.589 221.406 133.447 221.406ZM128.006 218.906C128.556 218.566 129.006 218.738 129.006 219.288C129.006 219.838 128.556 220.566 128.006 220.906C127.456 221.246 127.006 221.074 127.006 220.524C127.006 219.974 127.456 219.246 128.006 218.906ZM120.006 194.406C120.556 194.406 121.006 194.856 121.006 195.406C121.006 195.956 120.556 196.406 120.006 196.406C119.456 196.406 119.006 195.956 119.006 195.406C119.006 194.856 119.456 194.406 120.006 194.406ZM126.537 190.406C127.345 190.406 128.006 191.081 128.006 191.906C128.006 192.731 127.604 193.406 127.113 193.406C126.622 193.406 125.961 192.731 125.644 191.906C125.294 190.992 125.643 190.406 126.537 190.406ZM107.506 188.406C108.331 188.406 109.006 188.83 109.006 189.347C109.006 190.608 107.444 191.511 106.645 190.712C105.519 189.586 105.959 188.406 107.506 188.406ZM114.006 185.906C114.556 186.246 115.006 186.723 115.006 186.965C115.006 187.208 114.556 187.406 114.006 187.406C113.456 187.406 113.006 186.93 113.006 186.347C113.006 185.765 113.456 185.566 114.006 185.906ZM159.006 185.406C160.106 185.406 161.006 185.856 161.006 186.406C161.006 186.956 160.106 187.406 159.006 187.406C157.906 187.406 157.006 186.956 157.006 186.406C157.006 185.856 157.906 185.406 159.006 185.406ZM119.756 175.438C119.012 175.457 119.239 176.026 120.316 176.842C121.311 177.597 121.711 178.47 121.205 178.783C120.699 179.096 119.96 179.026 119.562 178.629C119.165 178.231 118.427 177.85 117.923 177.781C117.418 177.713 116.796 177.6 116.538 177.531C116.281 177.462 116.431 176.431 116.872 175.239C117.776 172.796 121.006 171.824 121.006 173.995C121.006 174.771 120.443 175.419 119.756 175.438ZM157.255 176.156C157.877 174.288 160.668 174.084 161.349 175.857C161.79 177.006 161.285 177.406 159.391 177.406C157.794 177.406 156.995 176.938 157.255 176.156ZM124.006 172.406C124.556 172.406 125.006 172.856 125.006 173.406C125.006 173.956 124.556 174.406 124.006 174.406C123.456 174.406 123.006 173.956 123.006 173.406C123.006 172.856 123.456 172.406 124.006 172.406ZM165.224 170.252C165.743 168.695 167.98 168.422 168.059 169.906C168.088 170.456 167.361 171.061 166.443 171.252C165.401 171.468 164.944 171.093 165.224 170.252ZM119.006 168.406C119.556 168.406 120.006 168.856 120.006 169.406C120.006 169.956 119.556 170.406 119.006 170.406C118.456 170.406 118.006 169.956 118.006 169.406C118.006 168.856 118.456 168.406 119.006 168.406ZM113.589 162.012C114.563 161.639 115.02 161.862 114.777 162.593C114.279 164.088 112.006 164.911 112.006 163.596C112.006 163.059 112.718 162.347 113.589 162.012ZM109.756 142.597C110.718 142.782 111.417 143.377 111.309 143.92C110.961 145.657 108.006 145.646 108.006 143.906C108.006 142.876 108.661 142.386 109.756 142.597ZM149.415 143.03C148.568 140.822 149.695 139.695 151.222 141.223C152.123 142.125 152.128 142.684 151.239 143.573C150.349 144.463 149.915 144.334 149.415 143.03ZM133.256 134.871C135.507 133.998 138.288 135.058 137.776 136.594C137.165 138.43 135.614 138.572 133.465 136.991C131.643 135.65 131.628 135.502 133.256 134.871ZM335.03 234.476C338.042 236.104 340.953 238.105 341.501 238.921C341.756 239.303 341.957 239.609 342.226 239.831C343.317 240.727 345.542 240.245 357.143 237.782C371.054 234.83 373.778 233.796 370.256 232.805C369.018 232.458 368.006 231.592 368.006 230.883C368.006 230.063 367.237 229.794 365.894 230.146C363.982 230.646 363.848 230.402 364.474 227.552C365.052 224.919 364.867 224.406 363.335 224.406C361.552 224.406 333.969 230.062 331.03 231.03C330.105 231.335 331.597 232.62 335.03 234.476ZM195.522 198.551C196.944 205.346 199.287 216.581 200.729 223.517C202.837 233.657 203.66 236.064 204.928 235.8C227.408 231.115 246.634 227.092 250.735 226.215C254.829 225.34 255.659 224.859 254.555 224.001C253.779 223.399 253 222.025 252.825 220.949C252.469 218.766 249.548 215.406 248.006 215.406C247.456 215.406 247.006 214.956 247.006 214.406C247.006 213.856 247.194 213.406 247.424 213.406C247.654 213.406 248.554 213.133 249.424 212.799C250.462 212.401 251.006 212.745 251.006 213.799C251.006 215.824 252.603 215.899 253.366 213.91C254.258 211.585 251.901 201.406 250.471 201.406C249.779 201.406 243.9 202.531 237.407 203.906C230.914 205.281 225.26 206.406 224.842 206.406C223.808 206.406 223.365 204.5 213.926 159.406C209.378 137.681 205.509 119.717 205.328 119.486C205.033 119.109 191.096 121.77 186.756 123.032C185.793 123.312 185.006 124.186 185.006 124.974C185.006 125.761 184.556 126.406 184.006 126.406C183.456 126.406 183.006 125.956 183.006 125.406C183.006 124.856 182.331 124.406 181.506 124.406C180.681 124.406 180.006 124.801 180.006 125.283C180.006 126.606 183.083 140.687 183.747 142.406C184.066 143.231 184.439 145.031 184.577 146.406C184.714 147.781 186.442 156.484 188.416 165.747C190.39 175.009 192.006 182.771 192.006 182.997C192.006 183.222 192.736 183.406 193.628 183.406C194.903 183.406 195.002 183.705 194.093 184.801C193.204 185.872 193.535 189.059 195.522 198.551ZM230.093 222.852C231.655 221.887 233.185 223.776 232.432 225.739C232.08 226.656 231.165 227.406 230.399 227.406C228.757 227.406 228.517 223.826 230.093 222.852ZM219.006 224.406C219.556 224.406 220.006 224.856 220.006 225.406C220.006 225.956 219.556 226.406 219.006 226.406C218.456 226.406 218.006 225.956 218.006 225.406C218.006 224.856 218.456 224.406 219.006 224.406ZM217.006 214.406C217.556 214.406 218.006 214.856 218.006 215.406C218.006 215.956 217.556 216.406 217.006 216.406C216.456 216.406 216.006 215.956 216.006 215.406C216.006 214.856 216.456 214.406 217.006 214.406ZM247.447 209.406C248.304 209.406 249.006 209.856 249.006 210.406C249.006 210.956 248.582 211.406 248.065 211.406C247.547 211.406 246.846 210.956 246.506 210.406C246.166 209.856 246.589 209.406 247.447 209.406ZM212.577 174.406C214.576 174.406 214.358 176.777 212.177 178.751C209.93 180.785 209.376 180.814 208.655 178.935C208.006 177.244 210.464 174.406 212.577 174.406ZM198.458 166.446C200.689 164.594 203.282 165.608 204.096 168.651C205.027 172.133 204.281 172.562 200.246 170.865C196.691 169.37 196.249 168.279 198.458 166.446ZM196.928 148.858C197.471 149.194 196.939 150.916 195.695 152.845C192.501 157.798 188.006 159.539 188.006 155.823C188.006 154.138 195.722 148.113 196.928 148.858ZM207.506 139.406C208.331 139.406 209.006 139.856 209.006 140.406C209.006 140.956 208.331 141.406 207.506 141.406C206.681 141.406 206.006 140.956 206.006 140.406C206.006 139.856 206.681 139.406 207.506 139.406ZM183.494 133.406C184.619 133.406 188.006 136.951 188.006 138.128C188.006 140.027 186.728 139.658 184.756 137.189C183.054 135.06 182.503 133.406 183.494 133.406ZM204.506 132.406C205.331 132.406 206.006 132.808 206.006 133.299C206.006 133.79 205.331 134.451 204.506 134.768C203.592 135.118 203.006 134.769 203.006 133.875C203.006 133.067 203.681 132.406 204.506 132.406ZM183.947 130.406C184.529 130.406 185.006 130.856 185.006 131.406C185.006 131.956 184.807 132.406 184.565 132.406C184.322 132.406 183.846 131.956 183.506 131.406C183.166 130.856 183.364 130.406 183.947 130.406ZM197.081 129.598C197.672 129.795 198.156 130.383 198.156 130.906C198.156 131.428 197.672 132.017 197.081 132.214C196.49 132.411 196.006 131.823 196.006 130.906C196.006 129.989 196.49 129.401 197.081 129.598ZM375.256 231.827C373.083 231.75 372.405 232.472 373.564 233.631C373.871 233.937 374.885 234.006 375.816 233.785C376.747 233.565 385.833 231.576 396.008 229.366C406.183 227.157 415.183 225.194 416.008 225.006C416.833 224.817 421.884 223.849 427.232 222.855C434.695 221.468 436.719 220.761 435.934 219.815C435.264 219.01 435.251 218.371 435.896 217.972C436.439 217.637 437.361 218.159 437.945 219.133C438.954 220.819 439.058 220.82 440.056 219.156C441.148 217.335 444.006 216.728 444.006 218.316C444.006 219.559 455.363 216.836 455.813 215.485C456.011 214.892 456.612 214.406 457.148 214.406C457.685 214.406 457.846 214.856 457.506 215.406C456.347 217.281 460.019 216.413 461.738 214.406C463.585 212.249 465.634 211.791 466.176 213.415C466.387 214.049 470.562 213.613 477.405 212.241C485.545 210.61 487.756 209.858 486.152 209.264C483.617 208.327 483.367 206.865 485.596 206.01C487.574 205.251 489.006 206.072 489.006 207.965C489.006 208.757 489.4 209.406 489.881 209.406C493.7 209.406 541.474 198.274 542.136 197.23C542.668 196.391 542.979 196.326 542.991 197.053C543.01 198.516 559.262 195.137 559.788 193.56C559.985 192.967 561.351 192.714 562.826 192.997C564.3 193.279 574.056 191.653 584.506 189.383C594.956 187.114 609.769 183.94 617.423 182.331C625.078 180.721 631.53 179.215 631.761 178.984C631.992 178.754 631.655 176.035 631.014 172.943C630.083 168.462 629.508 167.417 628.176 167.789C627.258 168.046 625.022 168.556 623.208 168.921C620.621 169.443 620.147 169.871 621.007 170.907C621.803 171.866 621.798 172.416 620.988 172.917C620.374 173.296 619.333 172.869 618.674 171.967C617.34 170.142 616.823 170.222 580.506 177.883C560.033 182.201 559.803 182.268 560.647 183.634C561.105 184.375 560.152 184.529 557.633 184.12C555.13 183.714 547.301 184.952 533.227 187.979C514.358 192.036 510.388 192.809 510.318 193.846C510.294 194.192 510.706 194.568 511.143 195.105C512.339 196.576 512.282 196.696 510.674 196.093C509.667 195.715 508.402 195.406 507.865 195.406C507.327 195.406 507.131 195.012 507.428 194.531C508.002 193.603 504.944 194.135 479.425 199.402C466.158 202.14 463.184 203.072 462.425 204.731C461.291 207.211 458.375 209.108 457.319 208.052C456.888 207.622 457.654 206.41 459.021 205.36C460.387 204.31 461.278 203.44 461 203.428C460.721 203.416 451.293 205.394 440.047 207.824C421.772 211.773 419.401 212.516 417.72 214.824C415.474 217.907 413.006 218.201 413.006 215.387C413.006 213.683 412.576 213.476 410.256 214.06C408.743 214.441 403.006 215.687 397.506 216.83L387.506 218.906L387.192 222.156C386.987 224.29 386.347 225.406 385.329 225.406C384.183 225.406 383.891 224.641 384.21 222.468C384.584 219.923 384.407 219.656 382.889 220.468C381.926 220.984 379.813 221.406 378.194 221.406C376.575 221.406 374.698 222.072 374.023 222.885C373.142 223.946 372.289 224.093 371.001 223.403C369.711 222.713 369.058 222.827 368.682 223.807C368.052 225.45 375.245 228.994 377.003 227.908C377.799 227.416 378.067 227.941 377.84 229.545C377.597 231.258 376.889 231.884 375.256 231.827ZM386.006 228.406C386.556 228.406 387.006 228.856 387.006 229.406C387.006 229.956 386.556 230.406 386.006 230.406C385.456 230.406 385.006 229.956 385.006 229.406C385.006 228.856 385.456 228.406 386.006 228.406ZM446.006 214.406C446.556 214.406 447.006 214.856 447.006 215.406C447.006 215.956 446.556 216.406 446.006 216.406C445.456 216.406 445.006 215.956 445.006 215.406C445.006 214.856 445.456 214.406 446.006 214.406ZM477.006 201.406C477.811 201.406 479.006 203.844 479.006 205.488C479.006 205.993 478.508 206.406 477.899 206.406C477.29 206.406 477.042 205.754 477.348 204.957C477.721 203.985 477.423 203.692 476.443 204.068C475.415 204.463 475.166 204.152 475.601 203.017C475.942 202.131 476.573 201.406 477.006 201.406ZM502.761 199.251C504.12 197.892 505.613 198.797 506.291 201.39C506.925 203.814 504.836 204.111 502.97 201.864C502.061 200.768 502 200.011 502.761 199.251ZM516.743 197.661C518.17 197.769 518.541 198.385 518.212 200.105C517.793 202.297 516.006 203.417 516.006 201.488C516.006 200.983 515.742 199.883 515.42 199.043C515.013 197.982 515.415 197.561 516.743 197.661ZM523.006 195.465C523.006 193.05 523.562 192.807 524.355 194.874C524.665 195.681 524.488 196.608 523.962 196.933C523.436 197.258 523.006 196.597 523.006 195.465ZM572.399 185.988C573.526 188.925 573.018 189.455 569.256 189.266C567.193 189.162 564.831 189.341 564.006 189.662C562.018 190.438 560.006 189.562 560.006 187.92C560.006 184.929 571.316 183.166 572.399 185.988ZM581.486 185.775C583.4 185.041 584.467 185.85 583.547 187.339C582.717 188.683 581.312 188.71 580.501 187.399C580.159 186.845 580.602 186.114 581.486 185.775ZM588.99 181.916C590.183 181.178 592.006 182.115 592.006 183.465C592.006 184.683 589.299 184.69 588.548 183.475C588.232 182.963 588.431 182.261 588.99 181.916ZM574.565 181.31C575.189 180.301 578.006 181.286 578.006 182.513C578.006 183.539 575.653 183.72 574.7 182.766C574.348 182.415 574.287 181.759 574.565 181.31ZM612.989 179.916C613.548 179.571 614.006 179.989 614.006 180.847C614.006 182.603 613.406 182.862 612.549 181.475C612.232 180.963 612.431 180.261 612.989 179.916ZM619.065 176.406C619.582 176.406 620.006 177.081 620.006 177.906C620.006 179.452 618.826 179.893 617.7 178.766C616.901 177.968 617.804 176.406 619.065 176.406ZM616.506 174.044C617.331 174.361 618.006 175.022 618.006 175.513C618.006 176.561 616.628 176.695 615.672 175.739C614.458 174.525 614.982 173.459 616.506 174.044ZM606.818 173.723C607.54 173.434 608.403 173.47 608.735 173.802C609.067 174.134 608.477 174.37 607.423 174.327C606.258 174.279 606.021 174.042 606.818 173.723ZM271.694 213.906C271.67 215.006 271.73 217.143 271.827 218.656C271.926 220.168 272.406 221.406 272.896 221.406C274.076 221.406 310.395 213.614 315.506 212.264C323.204 210.231 329.547 206.424 332.292 202.191C337.016 194.906 337.036 185.941 332.383 162.406C326.882 134.58 322.417 117.799 318.767 111.235C317.033 108.115 316.459 107.73 314.947 108.675C312.386 110.275 309.652 107.936 311.044 105.335C312.557 102.508 307.64 100.406 299.513 100.406C294.013 100.406 250.457 108.621 249.178 109.9C248.984 110.095 250.501 118.081 252.549 127.648L256.274 145.042L265.39 143.694C270.404 142.952 276.238 141.88 278.356 141.31C281.662 140.421 282.117 139.967 281.58 138.091C281.236 136.889 280.686 133.83 280.357 131.292L279.76 126.679L286.421 125.422C292.47 124.281 293.264 124.329 295.053 125.948C296.137 126.929 297.55 129.571 298.195 131.819C298.839 134.067 299.402 135.985 299.446 136.082C299.489 136.179 302.446 135.632 306.015 134.867C313.684 133.224 315.307 133.109 314.594 134.263C314.303 134.735 311.239 135.698 307.785 136.405C304.332 137.111 301.185 137.969 300.793 138.311C300.4 138.653 301.416 145.002 303.051 152.419C307.365 172.004 309.143 183.012 308.442 185.806C307.753 188.55 306.807 189.07 299.182 190.9C294.092 192.122 293.82 192.084 292.963 190.042C292.471 188.867 289.96 177.781 287.385 165.406C284.81 153.031 282.658 142.841 282.604 142.763C282.55 142.684 276.881 143.858 270.006 145.371C259.28 147.732 257.52 148.391 257.602 150.014C257.793 153.754 270.26 210.917 270.991 211.406C271.403 211.681 271.721 212.806 271.694 213.906ZM291.589 199.54C290.755 198.191 291.593 196.66 292.61 197.677C292.942 198.009 293.025 198.849 292.793 199.544C292.454 200.56 292.219 200.56 291.589 199.54ZM308.559 192.321C309.385 190.984 311.353 191.201 313.565 192.874C315.437 194.291 315.417 194.341 313.006 194.295C309.659 194.232 307.869 193.437 308.559 192.321ZM289.006 187.906C289.556 188.246 290.006 188.947 290.006 189.465C290.006 189.983 289.556 190.406 289.006 190.406C288.456 190.406 288.006 189.704 288.006 188.847C288.006 187.989 288.456 187.566 289.006 187.906ZM322.006 182.406C322.556 182.406 323.006 183.081 323.006 183.906C323.006 185.968 321.377 185.797 320.622 183.656C320.282 182.693 319.742 181.343 319.422 180.656C319.101 179.968 319.327 179.406 319.922 179.406C320.518 179.406 321.006 180.081 321.006 180.906C321.006 181.731 321.456 182.406 322.006 182.406ZM316.947 174.406C317.464 174.406 318.166 174.856 318.506 175.406C318.846 175.956 318.422 176.406 317.565 176.406C316.707 176.406 316.006 175.956 316.006 175.406C316.006 174.856 316.429 174.406 316.947 174.406ZM315.839 139.094C316.442 140.221 316.651 141.427 316.304 141.774C315.396 142.682 313.214 142.552 312.597 141.553C312.307 141.084 312.671 139.878 313.406 138.873C314.689 137.118 314.786 137.127 315.839 139.094ZM324.947 136.406C325.529 136.406 326.006 136.856 326.006 137.406C326.006 137.956 325.807 138.406 325.565 138.406C325.322 138.406 324.846 137.956 324.506 137.406C324.166 136.856 324.364 136.406 324.947 136.406ZM260.506 123.406C261.331 123.406 262.006 124.081 262.006 124.906C262.006 125.731 261.331 126.406 260.506 126.406C259.681 126.406 259.006 125.731 259.006 124.906C259.006 124.081 259.681 123.406 260.506 123.406ZM266.375 123.926C265.531 121.726 266.459 121.042 267.912 122.793C268.73 123.778 268.772 124.432 268.047 124.88C267.467 125.239 266.714 124.81 266.375 123.926ZM257.685 114.408C258.454 113.616 261.006 117.604 261.006 119.597C261.006 121.657 257.078 122.191 256.891 120.156C256.709 118.181 257.155 114.954 257.685 114.408ZM301.494 116.772C303.067 116.169 304.951 117.722 304.99 119.656C305.017 120.968 302.298 120.463 301.016 118.918C300.012 117.708 300.101 117.307 301.494 116.772ZM293.006 103.17C293.006 101.821 297.284 102.709 297.761 104.156C297.994 104.864 297.342 105.406 296.256 105.406C294.18 105.406 293.006 104.598 293.006 103.17ZM392.213 182.866C391.109 183.969 398.582 190.495 402.58 191.919C407.443 193.652 409.027 193.688 418.484 192.282C424.593 191.373 425.832 190.902 424.939 189.826C422.413 186.783 428.375 184.918 431.294 187.837C432.536 189.079 433.307 189.069 437.116 187.76C439.53 186.93 442.217 185.61 443.087 184.826C443.957 184.043 444.889 183.623 445.16 183.893C446.049 184.783 450.849 178.965 451.543 176.156C452.252 173.287 451.826 173.002 447.351 173.354C444.584 173.572 443.601 171.987 445.517 170.397C446.336 169.717 447.006 169.457 447.006 169.819C447.006 170.181 447.882 170.008 448.952 169.435C450.479 168.618 451.108 168.766 451.866 170.12C452.666 171.551 452.949 171.226 453.512 168.224C455.267 158.869 442.858 98.9412 436.614 86.6189C433.374 80.2267 428.496 75.6171 423.548 74.2741C417.79 72.711 403.931 74.0261 395.154 76.9682C394.184 77.2936 394.465 77.9581 396.154 79.3276C399.679 82.185 397.693 82.9202 393.228 80.4108L389.319 78.2137L384.208 80.8035C375.167 85.3852 371.975 93.8796 373.586 109.076C374.042 113.383 374.581 115.642 374.783 114.097C374.994 112.479 375.65 111.466 376.328 111.707C377.745 112.212 377.401 116.544 375.869 117.491C374.711 118.206 376.708 132.406 377.966 132.406C378.318 132.406 378.619 133.869 378.638 135.656C378.692 141.2 384.091 162.471 385.261 161.748C385.952 161.321 386.103 161.925 385.695 163.488C385.064 165.901 386.633 173.094 388.174 174.856C388.632 175.379 389.006 176.616 389.006 177.606C389.006 178.755 389.748 179.406 391.058 179.406C393.312 179.406 400.987 183.459 400.998 184.656C401.01 185.837 399.167 185.541 395.863 183.832C394.189 182.967 392.547 182.532 392.213 182.866ZM440.111 181.018C441.268 182.25 441.938 183.707 441.599 184.255C440.856 185.458 430.089 185.35 429.337 184.132C428.575 182.901 429.598 182.153 432.224 182.021C433.934 181.935 434.585 181.217 434.822 179.156C435.127 176.511 438.006 175.096 438.006 177.592C438.006 178.244 438.953 179.785 440.111 181.018ZM411.516 175.39C411.229 175.855 411.559 176.442 412.25 176.696C413.256 177.064 413.256 177.421 412.256 178.481C411.568 179.21 410.969 179.604 410.924 179.356C410.033 174.485 410.045 173.312 410.976 173.888C411.561 174.249 411.803 174.925 411.516 175.39ZM431.592 173.267C432.411 171.941 433.73 172.245 434.367 173.906C434.697 174.766 434.388 175.406 433.641 175.406C431.936 175.406 430.923 174.349 431.592 173.267ZM410.006 168.406C410.556 168.406 411.006 168.856 411.006 169.406C411.006 169.956 410.556 170.406 410.006 170.406C409.456 170.406 409.006 169.956 409.006 169.406C409.006 168.856 409.456 168.406 410.006 168.406ZM431.233 168.224C431.737 166.711 437.135 166.393 436.756 167.898C436.618 168.443 435.221 169.036 433.65 169.215C431.635 169.445 430.923 169.154 431.233 168.224ZM426.17 164.174C425.727 164.872 423.825 165.884 421.942 166.424C414.686 168.505 412.977 167.289 410.111 158.01C407.759 150.396 401.635 122.187 399.769 110.369C398.555 102.687 398.583 101.662 400.047 100.119C400.942 99.1771 402.146 98.4061 402.723 98.4061C403.3 98.4061 404.008 97.506 404.296 96.4061C404.583 95.3061 405.359 94.406 406.019 94.406C406.678 94.406 406.961 95.0811 406.644 95.9061C406.212 97.0326 406.811 97.406 409.052 97.406C414.504 97.406 415.781 101.039 423.51 138.567C427.02 155.606 427.665 161.819 426.17 164.174ZM390.584 146.555C391.42 147.394 391.796 148.788 391.436 149.729C391.081 150.651 389.94 151.406 388.899 151.406C386.691 151.406 386.685 151.38 388.047 147.798C388.971 145.367 389.256 145.228 390.584 146.555ZM386.934 138.951C388.062 138.253 389.385 141.983 388.511 143.397C388.168 143.952 387.463 144.406 386.945 144.406C385.729 144.406 385.718 139.702 386.934 138.951ZM384.093 127.852C385.182 127.179 388.006 129.111 388.006 130.529C388.006 131.011 387.154 131.406 386.113 131.406C384.004 131.406 382.533 128.816 384.093 127.852ZM429.876 116.986C430.373 116.679 431.335 117.098 432.015 117.917C433.02 119.128 432.958 119.406 431.687 119.406C429.82 119.406 428.6 117.775 429.876 116.986ZM388.506 107.256C389.028 107.256 389.617 107.74 389.814 108.331C390.011 108.922 389.422 109.406 388.506 109.406C387.589 109.406 387.001 108.922 387.197 108.331C387.395 107.74 387.983 107.256 388.506 107.256ZM437.006 99.4061C438.106 99.4061 439.006 99.8295 439.006 100.347C439.006 101.627 437.768 102.23 436.256 101.688C434.282 100.98 434.8 99.4061 437.006 99.4061ZM426.947 99.406C427.464 99.406 428.166 99.856 428.506 100.406C428.846 100.956 428.422 101.406 427.565 101.406C426.707 101.406 426.006 100.956 426.006 100.406C426.006 99.856 426.429 99.406 426.947 99.406ZM431.006 94.8227C431.006 93.0568 433.159 93.3643 433.777 95.2185C433.994 95.8716 433.46 96.406 432.589 96.406C431.718 96.406 431.006 95.6935 431.006 94.8227ZM420.956 85.1648C422.39 86.3262 422.901 87.5149 422.46 88.6648C421.055 92.327 414.665 89.4248 415.67 85.5808C416.359 82.9478 418.054 82.8145 420.956 85.1648ZM431.006 87.4059C431.556 87.4059 432.006 87.8559 432.006 88.4059C432.006 88.9559 431.556 89.4059 431.006 89.4059C430.456 89.4059 430.006 88.9559 430.006 88.4059C430.006 87.8559 430.456 87.4059 431.006 87.4059ZM415.947 75.4059C417.014 75.4059 418.164 75.8523 418.501 76.398C419.462 77.9532 417.691 80.0379 415.756 79.629C413.301 79.1104 413.469 75.4059 415.947 75.4059ZM471.647 156.866C474.106 164.082 478.96 170.506 483.913 173.099C489.398 175.97 495.238 176.052 507.893 173.441C528.094 169.273 534.456 165.587 537.555 156.255C539.924 149.124 539.068 141.428 532.402 109.904C529.378 95.6042 526.645 82.6668 526.33 81.1542C525.95 79.3362 525.12 78.4042 523.881 78.4042C522.85 78.4042 522.006 77.9543 522.006 77.4043C522.006 76.8543 522.442 76.4042 522.974 76.4042C523.507 76.4042 523.684 75.7292 523.367 74.9043C523.051 74.0793 523.228 73.4042 523.76 73.4042C525.645 73.4042 522.638 63.9927 520.032 61.7374C517.77 59.7798 517.689 59.4796 519.256 58.8706C521.125 58.1439 521.668 53.9313 520.023 52.9148C519.482 52.5826 517.551 52.5882 515.73 52.9299C513.315 53.383 512.378 54.1161 512.263 55.6429C512.049 58.4824 509.849 60.5456 508.153 59.497C507.062 58.823 507.036 58.2172 508.019 56.3815C509.049 54.457 509.007 54.1916 507.75 54.6739C506.931 54.9881 504.254 55.5462 501.799 55.9143C498.798 56.3643 497.028 56.5804 496.178 57.5794C494.927 59.0479 495.664 62.2081 497.4 70.2893C498.833 76.9631 500.006 82.6206 500.006 82.8613C500.006 83.1021 502.481 84.9419 505.506 86.9498C508.531 88.9576 511.006 90.9801 511.006 91.4442C511.006 93.1926 509.143 93.3213 506.065 91.7855C504.314 90.912 502.661 90.4173 502.392 90.6864C502.123 90.9554 503.368 98.174 505.16 106.728C507.768 119.184 508.773 122.373 510.211 122.749C512.225 123.276 512.669 127.018 510.793 127.644C509.842 127.961 509.842 129.184 510.793 133.303C511.46 136.194 512.006 139.874 512.006 141.482C512.006 143.09 512.456 144.406 513.006 144.406C513.556 144.406 514.006 144.893 514.006 145.489C514.006 146.085 513.443 146.383 512.756 146.151C512.068 145.92 511.056 146.312 510.506 147.023C509.956 147.734 507.188 148.613 504.355 148.977C499.671 149.577 499.063 149.423 497.657 147.272C496.807 145.97 493.814 134.106 491.007 120.906C488.2 107.706 484.83 91.9559 483.518 85.9059C482.206 79.8559 480.594 72.0824 479.934 68.6315C479.275 65.1807 478.349 62.1181 477.876 61.8256C477.083 61.3353 453.094 65.9846 452.295 66.7834C452.101 66.978 452.911 71.3601 454.096 76.5215C455.281 81.6829 456.489 86.9982 456.779 88.3333C457.069 89.6684 458.477 91.7746 459.906 93.0138C461.992 94.8214 462.259 95.5177 461.256 96.5363C460.25 97.558 460.006 97.3763 460.006 95.6059C460.006 94.3959 459.556 93.4059 459.006 93.4059C458.456 93.4059 458.006 93.7905 458.006 94.2606C458.006 95.7955 469.133 147.802 469.635 148.615C469.904 149.05 470.922 149.406 471.898 149.406C472.874 149.406 473.969 149.702 474.331 150.064C475.381 151.114 473.001 153.341 471.461 152.75C470.304 152.307 470.337 153.021 471.647 156.866ZM527.006 158.406C527.556 158.406 528.006 158.856 528.006 159.406C528.006 159.956 527.556 160.406 527.006 160.406C526.456 160.406 526.006 159.956 526.006 159.406C526.006 158.856 526.456 158.406 527.006 158.406ZM484.281 145.349C484.572 146.463 484.055 147.956 483.069 148.849C482.122 149.705 481.159 150.345 480.927 150.27C480.695 150.195 479.493 149.939 478.256 149.7C475.542 149.177 475.228 146.406 477.883 146.406C478.916 146.406 480.321 145.731 481.006 144.906C482.683 142.885 483.671 143.018 484.281 145.349ZM491.84 142.623C492.747 142.324 493.067 142.915 492.84 144.466C492.656 145.722 491.905 146.947 491.172 147.189C490.265 147.488 489.945 146.897 490.172 145.346C490.355 144.09 491.106 142.865 491.84 142.623ZM485.075 136.949C485.587 137.265 486.006 138.172 486.006 138.965C486.006 140.615 484.425 140.894 483.506 139.406C482.69 138.086 483.886 136.214 485.075 136.949ZM522.497 134.406C524.057 134.406 525.455 137.87 524.511 139.397C523.429 141.149 521.262 140.492 520.671 138.232C520 135.666 520.601 134.406 522.497 134.406ZM474.43 134.343C475.297 135.062 476.006 136.223 476.006 136.921C476.006 138.396 474.062 139.306 472.256 138.675C470.791 138.164 470.667 136.49 471.945 134.47C472.698 133.28 473.123 133.259 474.43 134.343ZM471.006 127.837C471.006 125.956 475.128 126.233 475.761 128.156C476.019 128.94 475.209 129.406 473.589 129.406C471.909 129.406 471.006 128.858 471.006 127.837ZM525.363 125.716C526.185 124.893 529.006 126.177 529.006 127.375C529.006 127.942 528.357 128.406 527.565 128.406C525.972 128.406 524.487 126.592 525.363 125.716ZM521.006 123.406C521.556 123.406 522.006 124.081 522.006 124.906C522.006 125.731 521.556 126.406 521.006 126.406C520.456 126.406 520.006 125.731 520.006 124.906C520.006 124.081 520.456 123.406 521.006 123.406ZM526.731 102.28C527.677 101.335 528.084 101.445 528.597 102.782C529.432 104.959 528.848 105.544 526.985 104.393C525.842 103.686 525.786 103.225 526.731 102.28ZM520.947 80.4059C521.529 80.4059 522.006 80.8559 522.006 81.4059C522.006 81.9559 521.808 82.4059 521.565 82.4059C521.322 82.4059 520.846 81.9559 520.506 81.4059C520.166 80.8559 520.364 80.4059 520.947 80.4059ZM511.339 73.7392C512.056 73.0229 514.006 74.285 514.006 75.4649C514.006 75.9825 513.582 76.4059 513.065 76.4059C511.885 76.4059 510.623 74.4555 511.339 73.7392ZM573.001 128.906C575.804 142.106 578.345 153.735 578.648 154.747C579.035 156.041 579.823 156.426 581.296 156.04C582.45 155.739 588.032 154.514 593.7 153.319C600.743 151.833 604.006 150.709 604.006 149.766C604.006 148.11 597.15 115.546 596.351 113.406C595.893 112.178 595.666 112.241 595.101 113.753C594.495 115.378 594.261 115.419 593.16 114.092C592.356 113.123 592.268 112.362 592.914 111.963C593.466 111.622 593.629 110.569 593.275 109.624C592.694 108.074 592.811 108.052 594.463 109.398C596.137 110.762 596.244 110.719 595.709 108.898C594.86 106.011 586.006 63.9443 586.006 62.7995C586.006 62.2687 590.168 61.0046 595.256 59.9904C600.343 58.9762 604.797 57.9821 605.152 57.7814C605.848 57.388 601.627 36.6936 600.651 35.718C600.328 35.3944 597.913 35.5714 595.284 36.1114C578.415 39.5772 535.459 48.7288 535.233 48.9049C534.745 49.2861 539.269 69.8818 540.029 70.7366C540.435 71.1935 544.971 70.656 550.109 69.5423C555.247 68.4285 559.59 67.6567 559.761 67.8276C559.932 67.9983 561.556 75.0607 563.371 83.5219C565.186 91.9831 567.159 98.9059 567.755 98.9059C568.351 98.9059 569.177 99.2434 569.589 99.6559C570.002 100.068 569.54 100.406 568.564 100.406C567.225 100.406 566.926 100.958 567.347 102.656C567.655 103.893 570.199 115.706 573.001 128.906ZM580.506 112.256C581.028 112.256 581.617 112.74 581.814 113.331C582.011 113.922 581.423 114.406 580.506 114.406C579.589 114.406 579.001 113.922 579.198 113.331C579.395 112.74 579.983 112.256 580.506 112.256ZM575.16 109.968C575.549 108.094 577.506 107.764 577.506 109.573C577.506 110.214 576.9 110.941 576.16 111.188C575.319 111.468 574.944 111.011 575.16 109.968ZM590.947 106.406C591.529 106.406 592.006 106.856 592.006 107.406C592.006 107.956 591.808 108.406 591.565 108.406C591.322 108.406 590.846 107.956 590.506 107.406C590.166 106.856 590.364 106.406 590.947 106.406ZM575.006 103.406C575.556 103.406 576.006 104.081 576.006 104.906C576.006 105.731 575.556 106.406 575.006 106.406C574.456 106.406 574.006 105.731 574.006 104.906C574.006 104.081 574.456 103.406 575.006 103.406ZM572.006 97.4649C572.006 95.7325 573.766 95.4119 575.015 96.9169C576.043 98.1561 575.895 98.4059 574.128 98.4059C572.961 98.4059 572.006 97.9825 572.006 97.4649ZM2.63372 134.406C4.34921 134.406 4.43353 136.051 2.75579 136.79C1.12326 137.509 8.76638 136.315 12.0057 135.345L14.5057 134.597L11.2557 133.282C7.69363 131.841 7.20297 130.928 9.51442 130.041C11.6929 129.205 16.0057 131.092 16.0057 132.881C16.0057 133.487 15.9685 133.888 16.1507 134.103C16.5141 134.533 17.7507 134.225 21.8981 133.335C25.7565 132.508 26.7544 131.914 26.2961 130.72C25.8379 129.526 26.192 129.315 27.8545 129.79C29.0376 130.129 31.0147 130.696 32.2479 131.05C34.1856 131.607 34.3155 131.484 33.2043 130.145C32.1087 128.825 32.3913 128.36 35.1158 127.001C39.2705 124.928 40.0057 124.989 40.0057 127.406C40.0057 130.478 43.0272 129.598 44.2973 126.156C45.1996 123.71 47.3624 123.934 46.716 126.405C46.4283 127.505 46.2632 128.386 46.3494 128.363C46.4353 128.34 48.9524 127.75 51.9429 127.052C57.0104 125.869 60.1494 123.405 56.589 123.405C55.7182 123.405 55.0057 122.955 55.0057 122.405C55.0057 120.748 57.4736 121.28 58.8874 123.241C60.0361 124.835 60.8406 124.953 64.9862 124.133C68.9099 123.357 69.6762 122.861 69.2818 121.353C69.0178 120.344 67.8352 119.38 66.6538 119.212C64.1839 118.86 63.7305 116.082 66.0693 115.632C68.01 115.258 73.3442 120.049 72.503 121.41C72.1646 121.957 72.3162 122.405 72.8398 122.405C73.3634 122.405 74.089 121.631 74.4526 120.683C74.9865 119.292 75.2757 119.224 75.9591 120.33C76.664 121.471 78.3619 121.35 86.1553 119.604C91.2981 118.452 124.531 111.391 160.006 103.913C195.481 96.4356 225.181 90.0568 226.006 89.7382C227.042 89.3382 226.6 88.8998 224.576 88.3208C222.5 87.7266 220.653 87.9534 218.239 89.0991C213.572 91.3138 208.237 89.9668 206.064 86.0253C205.19 84.4412 204.138 83.1426 203.725 83.1395C200.55 83.116 191.606 84.6239 189.317 85.5686C187.771 86.2066 186.085 86.628 185.57 86.5052C185.056 86.3825 183.635 86.5332 182.413 86.8397C180.72 87.2646 180.325 87.9101 180.754 89.5499C181.307 91.6648 181.266 91.6725 178.411 89.9917C175.759 88.4303 174.982 88.4086 169.506 89.743C164.63 90.931 163.927 91.3391 165.756 91.922C166.993 92.3165 168.006 93.0367 168.006 93.5225C168.006 94.8334 166.727 94.5995 164.194 92.8253C162.095 91.3553 160.558 91.5398 142.222 95.4638C131.378 97.7844 121.546 99.8878 120.374 100.138C118.855 100.463 118.385 101.142 118.741 102.5C119.115 103.931 118.712 104.406 117.122 104.406C115.844 104.406 115.006 103.769 115.006 102.798C115.006 101.63 114.389 101.343 112.756 101.75C111.518 102.058 108.593 102.614 106.256 102.986C103.616 103.406 102.006 104.189 102.006 105.053C102.006 106.046 101.274 106.26 99.4446 105.801C95.7398 104.871 73.8406 109.502 75.0502 110.959C75.5664 111.581 75.6923 112.386 75.3306 112.748C74.1877 113.891 73.0059 113.463 73.0059 111.906C73.0059 111.416 73.0389 111.055 72.8784 110.836C72.4379 110.235 70.5403 110.701 62.5059 112.499C57.5559 113.606 52.3809 114.741 51.0059 115.02C36.7827 117.905 33.3922 118.859 32.3403 120.275C31.4018 121.537 30.7184 121.662 29.3168 120.827C27.9453 120.011 24.2301 120.459 14.0059 122.675C6.58091 124.285 0.378469 125.723 0.222752 125.87C-0.699264 126.745 1.46467 134.406 2.63372 134.406ZM23.2845 122.406C23.9972 122.406 24.6481 123.306 24.7308 124.406C24.814 125.506 24.7928 126.406 24.6843 126.406C24.5758 126.406 23.925 125.506 23.238 124.406C22.2301 122.792 22.2392 122.406 23.2845 122.406ZM40.0058 119.906C40.5558 120.246 41.0058 120.947 41.0058 121.465C41.0058 121.982 40.5558 122.406 40.0058 122.406C39.4558 122.406 39.0058 121.704 39.0058 120.847C39.0058 119.989 39.4558 119.566 40.0058 119.906ZM147.071 96.8658C148.7 95.8591 155.186 97.3652 154.757 98.6508C154.299 100.026 153.45 100.184 149.256 99.6741C145.998 99.2782 145.078 98.0971 147.071 96.8658ZM170.818 95.7228C171.54 95.434 172.403 95.4695 172.735 95.8017C173.067 96.1342 172.477 96.3704 171.422 96.3269C170.258 96.279 170.021 96.0421 170.818 95.7228ZM191.726 90.286C192.981 89.0307 196.006 90.2511 196.006 92.0129C196.006 93.6542 192.426 93.8948 191.452 92.3188C191.082 91.7208 191.206 90.8061 191.726 90.286ZM200.756 84.5963C201.943 84.825 202.506 85.8666 202.506 87.8363C202.506 90.663 201.079 92.1459 199.693 90.7601C199.315 90.3819 199.006 88.7646 199.006 87.1659C199.006 84.9361 199.413 84.3378 200.756 84.5963ZM226.852 84.7363C228.056 84.4214 229.536 85.0006 230.663 86.2276C231.027 86.624 231.277 86.9628 231.594 87.2193C233.207 88.5264 236.547 87.7026 265.479 81.5225C291.901 75.8787 293.681 75.2051 287.756 73.0931C285.96 72.4528 285.421 70.846 286.756 70.1122C287.168 69.8855 289.014 70.1088 290.858 70.6083C293.565 71.3418 294.108 71.9084 293.678 73.5524C293.239 75.2309 293.528 75.5005 295.326 75.0885C296.525 74.8136 301.218 73.8076 305.756 72.8529C311.809 71.5794 314.006 70.703 314.006 69.5618C314.006 68.3521 314.273 68.2732 315.206 69.2065C315.866 69.8665 317.271 70.4065 318.328 70.4065C319.87 70.4065 320.019 70.127 319.08 68.9955C318.279 68.031 318.241 67.3795 318.957 66.9365C320.393 66.0491 322.192 67.296 321.378 68.614C320.463 70.0934 328.036 68.6384 330.006 66.9562C331.968 65.2806 336.741 64.1685 337.399 65.2337C337.683 65.6927 345.625 64.4417 355.05 62.4536C367.578 59.8107 372.443 58.3777 373.145 57.1228C374.284 55.0864 376.006 54.8537 376.006 56.736C376.006 57.8153 377.453 57.7572 383.692 56.4276C387.919 55.5267 391.557 54.2534 391.775 53.5981C391.994 52.9428 391.685 52.4066 391.089 52.4066C389.388 52.4066 389.822 50.5754 391.77 49.5328C393.007 48.8711 394.129 49.0445 395.52 50.1123C396.894 51.1665 397.121 51.7804 396.256 52.1047C395.568 52.3624 395.006 52.9116 395.006 53.3251C395.006 53.7386 400.517 52.8865 407.254 51.4315C416.624 49.4077 419.578 48.3891 419.827 47.0963C420.202 45.1479 421.314 44.9692 423.77 46.4623C425.076 47.2565 431.205 46.3047 448.506 42.6211C467.483 38.5806 471.482 37.4359 471.369 36.0761C471.293 35.1696 471.693 34.7134 472.257 35.0619C472.933 35.4797 473.043 34.4176 472.579 31.9462C472.192 29.8839 472.242 28.3709 472.691 28.5837C478.007 31.1089 479.006 31.9527 479.006 33.9213V36.115L486.64 34.5958C492.814 33.3674 493.976 32.858 492.712 31.9341C491.854 31.3056 491.463 30.2841 491.847 29.664C492.689 28.301 500.981 28.7479 501.881 30.2048C502.655 31.457 516.149 28.6504 517.241 27.0102C517.669 26.3672 517.994 26.3239 518.021 26.9066C518.046 27.4566 518.525 27.1191 519.086 26.1566C520.239 24.1775 522.645 23.8252 523.221 25.5514C523.569 26.5973 568.849 17.6514 587.63 12.826C594.838 10.9741 596.491 8.74779 594.91 3.0201C594.574 1.80394 594.526 0.949163 594.078 0.466534C593.03 -0.661942 589.791 0.24417 575.55 3.32247C564.578 5.69405 563.544 6.11247 562.984 8.40672C562.307 11.1747 559.371 11.3848 557.374 8.80814C556.396 7.54566 553.688 7.90124 537.382 11.4334C525.029 14.1095 518.233 16.0363 517.683 17.0183C517.064 18.1258 516.503 18.2341 515.537 17.4325C514.159 16.2891 506.006 17.0946 506.006 18.374C506.006 18.7654 507.131 19.5983 508.506 20.2248C510.609 21.183 512.039 23.4067 510.553 23.4067C508.882 23.4067 505.006 20.8486 505.006 19.7462C505.006 18.0871 504.949 18.0889 497.006 20.001C493.431 20.8615 489.381 21.7828 488.006 22.0485C471.204 25.2936 457.459 28.5469 457.194 29.3412C457.012 29.8876 455.505 30.0565 453.821 29.7198C450.916 29.1387 450.832 29.2136 451.984 31.3662C452.76 32.8165 452.846 33.9661 452.225 34.5873C451.604 35.2084 451.029 34.6347 450.614 32.9799C450.258 31.5646 449.638 30.4067 449.235 30.4067C448.832 30.4067 442.428 31.6854 435.004 33.2483C427.58 34.8112 409.041 38.7081 393.806 41.908C368.471 47.2294 366.187 47.8776 367.056 49.5007C368.716 52.6018 368.152 53.2222 364.756 52.0307C362.968 51.4036 360.982 50.5537 360.341 50.1421C358.937 49.2401 328.781 55.3582 327.857 56.7325C327.5 57.2635 326.51 57.4306 325.658 57.1033C324.588 56.6929 324.28 56.9577 324.664 57.9576C324.999 58.8323 324.616 59.4066 323.696 59.4066C322.858 59.4066 322.02 58.9487 321.833 58.3889C321.618 57.742 317.853 58.1214 311.5 59.4303C298.845 62.0377 297.852 62.3482 298.55 63.4786C298.866 63.989 298.685 64.4066 298.148 64.4066C297.612 64.4066 297.022 63.999 296.839 63.5007C296.567 62.7622 273.182 67.4397 222.256 78.4183C219.368 79.0408 217.006 80.024 217.006 80.6033C217.006 81.2465 215.806 81.4166 213.925 81.0405C211.714 80.5982 210.96 80.7745 211.254 81.6656C211.891 83.5971 216.311 85.5315 217.115 84.2307C217.482 83.6365 218.273 83.454 218.873 83.8248C219.473 84.1955 220.829 84.0363 221.885 83.471C223.329 82.6981 223.94 82.7915 224.345 83.8471C224.662 84.6739 225.693 85.0394 226.852 84.7363ZM299.006 67.2397C299.006 64.4443 301.541 65.0542 301.776 67.9064C301.976 70.3195 301.055 71.1222 299.672 69.7397C299.306 69.373 299.006 68.248 299.006 67.2397ZM334.506 57.4064C335.331 57.4064 336.006 58.0813 336.006 58.9064C336.006 60.4679 334.823 60.8903 333.672 59.7397C332.522 58.589 332.944 57.4064 334.506 57.4064ZM342.006 57.4064C342.556 57.4064 343.006 57.8298 343.006 58.3474C343.006 58.8649 342.556 59.5666 342.006 59.9064C341.456 60.2463 341.006 59.8228 341.006 58.9654C341.006 58.1079 341.456 57.4064 342.006 57.4064ZM353.129 55.572C353.595 56.306 353.983 57.694 353.99 58.6565C354.008 60.6633 352.381 61.0266 351.752 59.1565C351.52 58.469 351.545 57.081 351.807 56.072C352.178 54.6447 352.471 54.5337 353.129 55.572ZM384.006 49.4065C384.556 49.4065 385.006 49.8565 385.006 50.4065C385.006 50.9565 384.556 51.4065 384.006 51.4065C383.456 51.4065 383.006 50.9565 383.006 50.4065C383.006 49.8565 383.456 49.4065 384.006 49.4065ZM389.589 47.4065C390.46 47.4065 390.994 47.9409 390.777 48.594C390.159 50.4482 388.006 50.7557 388.006 48.9898C388.006 48.119 388.718 47.4065 389.589 47.4065ZM399.947 46.4065C400.464 46.4065 401.166 46.8565 401.506 47.4065C401.846 47.9565 401.422 48.4065 400.565 48.4065C399.707 48.4065 399.006 47.9565 399.006 47.4065C399.006 46.8565 399.429 46.4065 399.947 46.4065ZM400.709 44.303C401.723 43.2892 407.988 46.1705 407.999 47.6563C408.008 48.6698 407.107 48.5052 403.116 46.7648C400.894 45.7958 400.065 44.9475 400.709 44.303ZM388.006 44.4061C388.556 44.4061 389.006 44.8562 389.006 45.4062C389.006 45.9562 388.556 46.4061 388.006 46.4061C387.456 46.4061 387.006 45.9562 387.006 45.4062C387.006 44.8562 387.456 44.4061 388.006 44.4061ZM422.92 42.959C423.441 42.637 424.131 42.7998 424.453 43.3208C424.775 43.8417 424.612 44.5314 424.091 44.8534C423.57 45.1755 422.881 45.0126 422.559 44.4917C422.237 43.9707 422.399 43.2811 422.92 42.959ZM396.447 42.4062C397.304 42.4062 398.006 42.8562 398.006 43.4062C398.006 43.9562 397.582 44.4062 397.065 44.4062C396.547 44.4062 395.846 43.9562 395.506 43.4062C395.166 42.8562 395.589 42.4062 396.447 42.4062ZM420.006 41.4062C420.556 41.4062 421.006 41.8562 421.006 42.4062C421.006 42.9562 420.556 43.4062 420.006 43.4062C419.456 43.4062 419.006 42.9562 419.006 42.4062C419.006 41.8562 419.456 41.4062 420.006 41.4062ZM438.531 37.3652C439.14 36.3806 443.006 38.3519 443.006 39.6467C443.006 40.6716 441.868 40.5562 439.735 39.3143C438.761 38.7472 438.219 37.8701 438.531 37.3652ZM446.006 35.8229C446.006 34.0569 448.159 34.3644 448.777 36.2187C448.994 36.8718 448.46 37.4062 447.589 37.4062C446.718 37.4062 446.006 36.6937 446.006 35.8229ZM487.642 31.9004C487.02 30.2803 488.523 29.8155 489.463 31.3371C489.78 31.8491 489.628 32.5214 489.127 32.8313C488.626 33.1412 487.957 32.7223 487.642 31.9004ZM483.684 25.4062C483.94 25.4062 484.767 26.0249 485.524 26.7812C486.69 27.9479 486.54 28.1562 484.532 28.1562C482.934 28.1562 482.336 27.7092 482.692 26.7812C482.982 26.0249 483.429 25.4062 483.684 25.4062ZM490.156 24.4562C490.586 23.167 491.957 22.9355 492.081 24.1312C492.122 24.5299 491.616 25.0362 490.956 25.2562C490.296 25.4762 489.936 25.1162 490.156 24.4562ZM570.447 13.4062C571.304 13.4062 572.006 13.8562 572.006 14.4061C572.006 14.9561 571.582 15.4062 571.065 15.4062C570.547 15.4062 569.846 14.9561 569.506 14.4061C569.166 13.8562 569.589 13.4062 570.447 13.4062ZM570.006 8.40614C570.556 8.40614 571.006 8.85619 571.006 9.40619C571.006 9.95618 570.556 10.4062 570.006 10.4062C569.456 10.4062 569.006 9.95618 569.006 9.40619C569.006 8.85619 569.456 8.40614 570.006 8.40614ZM590.006 7.40616C590.556 7.40616 591.006 7.85615 591.006 8.40614C591.006 8.95614 590.556 9.40619 590.006 9.40619C589.456 9.40619 589.006 8.95614 589.006 8.40614C589.006 7.85615 589.456 7.40616 590.006 7.40616Z" fill="black"/>
</svg>
